<?xml version="1.0" standalone="no"?>
<!DOCTYPE svg PUBLIC "-//W3C//DTD SVG 20010904//EN"
 "http://www.w3.org/TR/2001/REC-SVG-20010904/DTD/svg10.dtd">
<svg version="1.0" xmlns="http://www.w3.org/2000/svg"
 width="401.000000pt" height="516.000000pt" viewBox="0 0 401.000000 516.000000"
 preserveAspectRatio="xMidYMid meet">

<g transform="translate(0.000000,516.000000) scale(0.100000,-0.100000)"
fill="#000000" stroke="none">
<path d="M4 5005 c0 -88 2 -123 3 -77 2 46 2 118 0 160 -1 42 -3 5 -3 -83z"/>
<path d="M2198 4985 c-3 -3 -49 -11 -104 -19 -206 -30 -342 -75 -389 -126 -10
-11 -24 -20 -31 -20 -7 0 -14 -3 -16 -7 -1 -5 -27 -26 -56 -48 -29 -22 -62
-55 -74 -73 -11 -18 -28 -37 -38 -42 -45 -24 -146 -232 -163 -335 -15 -91 -10
-444 6 -465 24 -30 47 -79 47 -99 0 -19 -4 -20 -32 -15 -53 10 -71 10 -75 -3
-6 -16 32 -35 72 -36 30 -1 34 -4 39 -36 3 -20 6 -59 6 -88 0 -28 5 -55 10
-58 14 -9 12 -62 -2 -68 -10 -3 -10 -9 -2 -23 24 -41 32 -25 32 63 -1 127 9
206 42 313 16 52 39 129 51 170 13 41 22 81 20 89 -2 9 3 12 13 8 11 -4 16 -1
16 11 0 9 7 30 15 45 8 16 15 45 17 65 1 22 9 42 20 50 10 7 18 19 18 25 0 12
108 117 120 117 4 0 15 9 25 20 10 11 24 20 32 20 7 0 13 5 13 10 0 6 12 15
28 21 15 6 41 17 57 26 17 8 52 17 80 20 28 3 54 12 61 21 14 19 76 25 86 9 5
-9 10 -9 19 0 8 8 16 9 24 3 7 -6 30 -11 52 -13 22 -1 51 -10 66 -20 14 -9 33
-17 42 -17 9 0 26 -6 38 -14 12 -7 53 -17 91 -20 63 -6 73 -10 110 -46 22 -22
46 -40 52 -40 16 0 44 -34 44 -53 0 -19 15 -23 25 -7 11 17 55 -46 64 -92 5
-23 22 -72 38 -108 17 -36 35 -92 42 -124 6 -33 19 -78 30 -100 44 -96 56
-141 80 -301 l7 -50 8 40 c14 75 28 110 52 133 26 25 28 30 15 50 -7 11 -12
11 -28 1 -34 -21 -53 -5 -53 43 0 31 6 49 24 67 23 25 24 31 27 221 4 238 -9
346 -52 434 -17 35 -42 75 -55 89 -13 14 -24 30 -24 35 0 11 -87 102 -98 102
-5 0 -28 20 -53 44 -39 39 -113 76 -151 76 -6 0 -32 14 -58 30 -28 18 -66 32
-96 36 -27 3 -53 9 -59 14 -5 4 -26 11 -45 15 -19 4 -39 11 -45 15 -13 9 -71
20 -77 15z m77 -35 c8 -13 -37 -31 -49 -20 -4 5 -5 13 -2 19 9 14 43 14 51 1z
m523 -287 c-4 -22 -38 -26 -38 -4 0 10 8 17 21 18 14 1 19 -3 17 -14z"/>
<path d="M2640 4001 c0 -5 -48 -9 -106 -10 -100 -1 -151 -12 -139 -30 2 -5 -6
-30 -20 -57 -22 -43 -23 -53 -13 -86 15 -50 30 -63 57 -47 17 11 23 10 40 -5
12 -11 21 -25 21 -33 0 -18 81 -21 88 -3 1 4 9 16 16 26 14 18 15 18 49 -1 31
-16 40 -17 76 -6 50 15 53 37 11 74 -16 15 -30 31 -30 36 0 5 -28 9 -62 9 -35
0 -74 4 -88 10 -24 9 -23 9 15 22 23 8 81 13 135 13 52 -1 98 1 103 4 14 8
-25 43 -75 69 -49 25 -78 30 -78 15z"/>
<path d="M1710 3981 c-19 -4 -50 -15 -68 -25 -36 -19 -61 -64 -41 -76 16 -10
52 0 66 18 17 21 174 23 221 3 l33 -14 -22 -15 c-15 -10 -51 -16 -106 -18 -92
-3 -158 -30 -150 -63 2 -9 9 -15 15 -13 7 1 12 -8 12 -20 0 -16 3 -19 11 -11
8 8 18 7 37 -2 15 -8 36 -15 47 -17 17 -2 19 2 17 25 -5 36 16 35 50 -3 14
-16 35 -30 46 -30 25 0 59 30 71 63 12 31 23 34 41 12 23 -27 55 -18 76 21 14
28 16 38 7 41 -7 3 -13 9 -13 14 0 5 -21 31 -46 58 l-46 49 -99 1 c-54 1 -104
3 -111 5 -7 2 -29 0 -48 -3z"/>
<path d="M2108 3418 c-28 -10 -38 -41 -18 -53 5 -3 37 -8 70 -11 47 -5 60 -3
60 7 0 19 -10 32 -40 52 -28 19 -34 20 -72 5z"/>
<path d="M2296 3409 c-14 -11 -30 -28 -35 -37 -8 -15 -3 -17 34 -20 55 -3 95
12 95 37 0 21 -27 41 -53 41 -8 0 -26 -9 -41 -21z"/>
<path d="M2400 3094 c0 -16 -2 -17 -10 -4 -5 9 -10 10 -10 3 0 -6 -13 -10 -32
-9 -18 1 -48 -2 -67 -5 -20 -5 -52 -2 -79 6 -33 10 -48 11 -53 3 -4 -6 -12 -7
-20 -2 -23 14 -52 12 -95 -7 -54 -22 -62 -37 -29 -49 19 -7 43 -6 87 6 33 8
79 14 102 14 22 -1 84 -1 137 0 52 0 107 -3 121 -9 33 -13 68 -3 68 18 0 11
-14 21 -42 28 -24 7 -51 15 -60 18 -13 5 -18 2 -18 -11z"/>
<path d="M1530 2940 c0 -56 -1 -60 -23 -60 -24 0 -67 -37 -67 -58 0 -7 -17
-29 -38 -51 -20 -21 -48 -60 -61 -86 -13 -26 -30 -55 -38 -64 -7 -9 -42 -59
-76 -111 l-64 -95 -94 -42 c-52 -23 -128 -58 -170 -78 -42 -19 -110 -46 -151
-59 -42 -14 -118 -45 -169 -70 -52 -26 -101 -46 -111 -46 -9 0 -20 -4 -23 -10
-3 -5 -13 -10 -22 -10 -24 0 -123 -52 -117 -62 3 -4 -5 -8 -17 -8 -39 0 -149
-66 -242 -145 l-47 -40 0 -528 0 -529 49 36 c27 20 53 36 59 36 19 0 34 -29
42 -82 4 -29 18 -80 30 -113 20 -54 21 -65 9 -120 -7 -34 -22 -71 -34 -85 -13
-14 -33 -45 -45 -70 -25 -50 -42 -66 -82 -81 l-28 -11 0 -134 0 -134 638 0
c350 0 1029 -3 1507 -6 479 -3 1094 -6 1368 -7 l497 -2 0 157 c0 122 -3 159
-14 165 -26 15 -46 73 -48 135 -2 46 6 90 27 163 l30 100 3 532 2 531 -62 42
c-35 22 -106 61 -158 86 -52 25 -124 60 -160 79 -216 110 -597 295 -609 295
-23 0 -53 55 -72 131 -23 92 -39 128 -64 149 -9 8 -27 34 -40 59 -13 25 -35
56 -49 69 -23 19 -26 28 -20 60 3 20 13 47 21 60 14 22 10 42 -7 42 -5 0 -21
-12 -36 -27 -17 -17 -36 -27 -50 -25 -16 2 -26 -5 -36 -25 -8 -18 -22 -29 -38
-31 -14 -2 -32 -6 -40 -9 -8 -3 -18 -6 -21 -5 -4 1 -36 -31 -73 -70 -42 -45
-71 -68 -80 -65 -8 3 -16 2 -18 -3 -5 -13 -179 -15 -223 -3 -22 7 -52 15 -67
18 -20 4 -28 11 -28 27 0 29 -39 61 -68 55 -15 -3 -26 1 -29 10 -5 12 -7 12
-14 1 -6 -10 -9 -8 -9 7 0 12 -3 16 -8 9 -9 -14 -109 15 -122 35 -4 8 -19 14
-34 14 -14 0 -26 4 -26 9 0 6 -6 6 -14 -1 -11 -9 -15 -7 -20 11 -5 19 -8 20
-16 8 -5 -8 -10 -10 -10 -4 0 6 -13 27 -30 45 -16 19 -30 38 -30 42 0 15 -52
77 -60 72 -5 -3 -11 -1 -15 5 -4 6 -11 8 -16 5 -5 -4 -9 1 -9 9 0 9 -4 16 -10
16 -6 0 -10 -27 -10 -60z m103 -329 c26 -24 47 -48 47 -52 0 -9 22 -38 53 -71
20 -21 24 -53 5 -41 -7 4 -24 9 -38 11 -49 6 -120 34 -129 50 -11 23 -22 167
-13 176 4 4 11 -1 17 -11 5 -10 31 -38 58 -62z m134 -163 c-3 -8 -6 -5 -6 6
-1 11 2 17 5 13 3 -3 4 -12 1 -19z m204 -132 c31 -16 109 -26 317 -40 17 -2
35 -6 39 -9 3 -4 39 -7 80 -7 60 0 77 4 93 20 12 12 32 25 45 30 25 9 25 9 21
-38 -2 -26 -7 -85 -11 -132 -6 -79 -25 -160 -46 -202 -5 -10 -9 -28 -9 -39 0
-12 -11 -41 -24 -64 -27 -45 -12 -39 -205 -87 -24 -6 -93 -12 -154 -12 l-111
-1 -13 55 c-7 30 -20 118 -28 195 -9 77 -22 161 -30 187 -19 59 -20 158 -2
158 6 0 24 -6 38 -14z m-1771 -426 c0 -5 -2 -10 -4 -10 -3 0 -8 5 -11 10 -3 6
-1 10 4 10 6 0 11 -4 11 -10z m3119 -1682 c54 -19 121 -78 121 -106 0 -12 -13
-14 -82 -8 -104 8 -160 26 -148 46 5 8 7 25 4 36 -10 40 40 54 105 32z"/>
<path d="M2178 2925 c-7 -16 -8 -29 -2 -35 14 -14 123 -22 173 -13 36 7 45 12
46 31 2 28 -42 42 -138 42 -62 0 -68 -2 -79 -25z"/>
</g>
</svg>
